<svg xmlns="http://www.w3.org/2000/svg" enable-background="new 0 0 192 192" height="192" viewBox="0 0 192 192" width="192"><rect fill="none" height="192" width="192"/><g><g><path d="M132.32,96.3l12.43-9.42l10.99-14.01c-3.48-8.8-12.6-25.05-12.6-25.05s-15.95-8.1-23.69-11.14 l-14.18,10.08l-9.15,13.08l-9.16-13.26l-14-10.07c-7.81,3-23.88,12.09-23.88,12.09s-9.31,15.37-12.83,24.27l11.01,14.03 l12.27,9.26l-13.03,9.93l-10.49,13.42c3.1,8.08,11.67,23.5,11.67,23.5s16.05,9.8,24.68,13.22l13.19-10.17L96,132.62l9.27,12.29 l14.35,11.33c8.08-3.19,23.44-11.96,23.44-11.96s9.43-15.86,12.75-24.33l-10.79-13.9L132.32,96.3z M96.01,122.59 c-14.41,0-26.1-11.68-26.1-26.1c0-14.41,11.68-26.1,26.1-26.1s26.1,11.68,26.1,26.1C122.11,110.91,110.42,122.59,96.01,122.59z" fill="#1967D2"/><path d="M132.32,96.3l23.43-23.43c2.9,7.31,4.5,15.28,4.5,23.62c0,8.28-1.58,16.19-4.44,23.46L132.32,96.3z M36.26,72.88c-2.89,7.31-4.5,15.27-4.5,23.61c0,8.12,1.52,15.87,4.27,23.02l23.51-23.35L36.26,72.88z M119.46,36.68 c-7.27-2.85-15.17-4.43-23.45-4.43c-8.12,0-15.88,1.52-23.04,4.27l23.16,23.32L119.46,36.68z M72.39,156.23 c7.31,2.9,15.28,4.5,23.62,4.5c8.34,0,16.3-1.61,23.61-4.5L96,132.62L72.39,156.23z M155.81,119.95 c-6.5,16.55-19.66,29.74-36.19,36.28l22.91,22.91c3.14,3.14,8.22,3.14,11.36,0l24.8-24.8c3.13-3.13,3.14-8.2,0.02-11.34 L155.81,119.95z M155.75,72.87l23.4-23.4c3.14-3.14,3.14-8.22,0-11.36l-24.8-24.8c-3.13-3.13-8.2-3.14-11.34-0.02l-23.56,23.39 C136.01,43.18,149.21,56.34,155.75,72.87z M36.03,119.51l-23.16,23c-3.16,3.13-3.16,8.23-0.02,11.38l25.26,25.26 c3.14,3.14,8.22,3.14,11.36,0l22.92-22.92C55.71,149.63,42.47,136.27,36.03,119.51z M72.97,36.52L49.49,12.87 c-3.13-3.16-8.23-3.16-11.38-0.02L12.85,38.11c-3.14,3.14-3.14,8.22,0,11.36l23.41,23.41C42.86,56.21,56.22,42.96,72.97,36.52z" fill="#4285F4"/></g></g></svg>